# xmcd CD database file
#
# Track frame offsets:
#	150
#	34172
#	67917
#	103577
#	131468
#	158867
#	201706
#	225069
#	268305
#	292574
#	325224
#
# Disc length: 4763 seconds
#
# Revision: 1
# Processed by: cddbd v1.5.2PL0 Copyright (c) Steve Scherf et al.
# Submitted via: CDex 1.70beta2
#
DISCID=9412990b
DTITLE=Straight Up! - The Flow
DYEAR=2006
DGENRE=Jazz
TTITLE0=Glass
TTITLE1=Childs Play
TTITLE2=The Flow
TTITLE3=Inner Senses
TTITLE4=Knowing
TTITLE5=Realizations
TTITLE6=Cielo
TTITLE7=The End Of A Wave
TTITLE8=Wag It/The Market Square
TTITLE9=Time Will Tell
TTITLE10=At Every Step
EXTD=YEAR: 2006
EXTT0=
EXTT1=
EXTT2=
EXTT3=
EXTT4=
EXTT5=
EXTT6=
EXTT7=
EXTT8=
EXTT9=
EXTT10=
PLAYORDER=
